<svg xmlns="http://www.w3.org/2000/svg" viewBox="0 0 440 440" fill="none" shape-rendering="auto"><metadata xmlns:rdf="http://www.w3.org/1999/02/22-rdf-syntax-ns#" xmlns:xsi="http://www.w3.org/2001/XMLSchema-instance" xmlns:dc="http://purl.org/dc/elements/1.1/" xmlns:dcterms="http://purl.org/dc/terms/"><rdf:RDF><rdf:Description><dc:title>Face Generator</dc:title><dc:creator>The Visual Team</dc:creator><dc:source xsi:type="dcterms:URI">https://www.figma.com/community/file/986078800058673824</dc:source><dcterms:license xsi:type="dcterms:URI">https://creativecommons.org/licenses/by/4.0/</dcterms:license><dc:rights>Remix of „Face Generator” (https://www.figma.com/community/file/986078800058673824) by „The Visual Team”, licensed under „CC BY 4.0” (https://creativecommons.org/licenses/by/4.0/)</dc:rights></rdf:Description></rdf:RDF></metadata><mask id="viewboxMask"><rect width="440" height="440" rx="0" ry="0" x="0" y="0" fill="#fff" /></mask><g mask="url(#viewboxMask)"><g transform="matrix(.71048 0 0 .71048 24 2)"><path d="M476.4 267.7c-14.4-21.3 9.1-32.6 0-76.2-9.2-43.6-47-23.2-65.4-43.6-18.5-20.4-18.8-38.6-47.8-47-50.7-14.8-83 24.5-127.5 0s-95 12.8-103 47c-5.5 24-9.5 43.3-43.5 68.8-39.6 29.7-37.5 91.5-9.5 125.5s19.5 49 18.5 81 29.5 65 75 53.5 46.5 26.4 96.5 39.7c54 14.3 41-21.5 93.5-22.5s63.5-31 73-60.5 4-39 31-69 36-57.2 9.2-96.7Z" fill="#a55728"/></g><g transform="translate(81.7 150.7) scale(.71856)"><path d="M293.1 88.7C258 38.7 171.6 25.4 120.3 58 69 91 57.5 145.2 65 204.8c3.1 24.1 7 43 9 63.5 6.6 63.2 93 94.7 118.6 94.7 40.4 0 108.3-44.3 116.8-94.7 7.7-46 7-42.4 7.5-63.5.6-21 11.3-66.1-23.9-116.1Z" fill="#a66637"/><path d="M76.2 279.7c22.6 47.6 92.6 71.3 115.6 71.3 39 0 102.8-38.9 118-85.2l-.5 2.8C301 319 233 363.5 192.6 363.5c-24 0-101.7-27.9-116.4-83.8Z" fill="#000" fill-opacity=".2"/></g><g transform="translate(199.5 333.4) scale(.71856)"><path d="M59 15a31 31 0 0 1-62 0C-3-2 10.8 11 28 11c17 0 31-13 31 4.1Z" fill="#DE8383"/><path fill-rule="evenodd" clip-rule="evenodd" d="M56.3 7A31 31 0 0 1-.3 7c2.5-1.7 6.8-.5 12.1 1 4.7 1.3 10.3 2.9 16.2 2.9 6 0 11.5-1.6 16.2-3 5.3-1.4 9.5-2.6 12-1Z" fill="#F9F9F9"/></g><g transform="translate(280.7 235.4) scale(.71856)"><path d="M24 43.3C24 31.5 33.5 22 45.3 22h37.2c11.8 0 21.4 9.5 21.4 21.3v37.3c0 11.8-9.6 21.4-21.4 21.4H45.3A21.3 21.3 0 0 1 24 80.6V43.3Z" fill="#a66637"/><path d="M32.9 62A31 31 0 1 1 95 62a31 31 0 1 1-62.1 0Z" fill="#000" fill-opacity=".2"/></g><g transform="matrix(-.71856 0 0 .71856 161.5 235.4)"><path d="M24 43.3C24 31.5 33.5 22 45.3 22h37.2c11.8 0 21.4 9.5 21.4 21.3v37.3c0 11.8-9.6 21.4-21.4 21.4H45.3A21.3 21.3 0 0 1 24 80.6V43.3Z" fill="#a66637"/><path d="M32.9 62A31 31 0 1 1 95 62a31 31 0 1 1-62.1 0Z" fill="#000" fill-opacity=".2"/></g><g transform="translate(114.8 215.5) scale(.71856)"><g stroke="#000" stroke-linecap="round"><path d="M106 43c-3.6 2.9-9.3 8.7-20.3 8.7-9.4 0-17.3-6.4-18.7-8.7M184.9 43c3.7 2.9 9.3 8.7 20.4 8.7 9.4 0 17.3-6.4 18.7-8.7" stroke-width="7"/><path d="m73 74 35.5 15.5L73 110M220.5 74 185 89.5l35.5 20.5" stroke-width="4" stroke-linejoin="round"/></g></g><g transform="translate(127.7 288.7) scale(.71856)"></g><g transform="translate(193 279.4) scale(.71856)"><path d="M37 14v27c-3.7.7-11 4-11 10.5 0 8.2 7.3 10.5 11 11.7" stroke="#000" stroke-opacity=".5" stroke-width="4" stroke-linecap="round" stroke-linejoin="round"/></g><g transform="matrix(.52237 0 0 .52237 122.9 244.8)"><path d="M10 94V8h32l-3.7 76.9L10 94Z" fill="#a55728"/></g><g transform="matrix(-.52237 0 0 .52237 315.7 244.8)"><path d="M10 94V8h32l-3.7 76.9L10 94Z" fill="#a55728"/></g><g transform="matrix(.52237 0 0 .52237 108.7 145.6)"><g fill="#a55728"><path d="M374 133c6.5 15.9 11.5 34.5 11.5 70-11 0-38.5 11-92.5-18-54.8-29.5-68.9-59.5-82-79-13 27-37 51.3-72.5 73.5C103 201.7 54.2 200.5 38 203c0-23.1 2-46 10.9-67.4A176 176 0 0 1 211 27a175 175 0 0 1 124 51.5c16.4 16.4 30.2 33.1 39 54.5Z"/><path d="M210 148c10.4-22.4 12-39.5 12-47.5-4.5-25-20.5-14-22-7.5s.5 17-1.5 43c-1.6 20.8-22.3 46-34 54a90.6 90.6 0 0 0 45.5-42Z"/></g></g></g></svg>