<svg xmlns="http://www.w3.org/2000/svg" viewBox="0 0 440 440" fill="none" shape-rendering="auto"><metadata xmlns:rdf="http://www.w3.org/1999/02/22-rdf-syntax-ns#" xmlns:xsi="http://www.w3.org/2001/XMLSchema-instance" xmlns:dc="http://purl.org/dc/elements/1.1/" xmlns:dcterms="http://purl.org/dc/terms/"><rdf:RDF><rdf:Description><dc:title>Face Generator</dc:title><dc:creator>The Visual Team</dc:creator><dc:source xsi:type="dcterms:URI">https://www.figma.com/community/file/986078800058673824</dc:source><dcterms:license xsi:type="dcterms:URI">https://creativecommons.org/licenses/by/4.0/</dcterms:license><dc:rights>Remix of „Face Generator” (https://www.figma.com/community/file/986078800058673824) by „The Visual Team”, licensed under „CC BY 4.0” (https://creativecommons.org/licenses/by/4.0/)</dc:rights></rdf:Description></rdf:RDF></metadata><mask id="viewboxMask"><rect width="440" height="440" rx="0" ry="0" x="0" y="0" fill="#fff" /></mask><g mask="url(#viewboxMask)"><g transform="matrix(.71048 0 0 .71048 24 2)"><g fill="#ecdcbf"><path d="M431 317.5v-8a155.5 155.5 0 0 0-311 0v8a155.5 155.5 0 0 0 311 0Z"/><path d="M94.5 288.5c4.6 30.3 15.8 96.2 45.5 133 47.3 72.2 259.1 111.6 289.2-23.2C468 224.5 449.7 138 334 138c-96 0-140.2 19.5-156.5 51.5-38-28-91.5 43.5-83 99Z"/></g></g><g transform="translate(81.7 150.7) scale(.71856)"><circle cx="190.2" cy="167.2" r="121.2" fill="#da9969"/><path fill="#da9969" d="M69 164.5h242.4v191.2H69z"/><path d="M69 336h242v20H69v-20Z" fill="#000" fill-opacity=".2"/></g><g transform="translate(199.5 333.4) scale(.71856)"><path d="M59.7 22.3a31 31 0 0 1-62 0c0-17 13.9-4 31-4 17 0 31-13 31 4Z" fill="#DE8383"/></g><g transform="translate(280.7 235.4) scale(.71856)"><path d="M70.9 16A40.4 40.4 0 0 0 31 47.3V109c24.3-3.3 67.7-24.5 74-45 6.2-20.6-1-48-34.1-48Z" fill="#da9969"/><path d="M69.3 27.7c-19 0-27 15-28.6 22.5v44.1c17.5-2.3 48.5-17.5 53-32.2 4.5-14.7-.7-34.4-24.4-34.4Z" fill="#000" fill-opacity=".2"/><path d="M52.4 62.7c0-11.3-7.8-15-11.7-15.4v33.3a18.5 18.5 0 0 0 11.7-18Z" fill="#da9969"/></g><g transform="matrix(-.71856 0 0 .71856 161.5 235.4)"><path d="M70.9 16A40.4 40.4 0 0 0 31 47.3V109c24.3-3.3 67.7-24.5 74-45 6.2-20.6-1-48-34.1-48Z" fill="#da9969"/><path d="M69.3 27.7c-19 0-27 15-28.6 22.5v44.1c17.5-2.3 48.5-17.5 53-32.2 4.5-14.7-.7-34.4-24.4-34.4Z" fill="#000" fill-opacity=".2"/><path d="M52.4 62.7c0-11.3-7.8-15-11.7-15.4v33.3a18.5 18.5 0 0 0 11.7-18Z" fill="#da9969"/></g><g transform="translate(114.8 215.5) scale(.71856)"><path d="M51 66.6c6.9-2.2 17.4-6.6 38-6.6 17.6 0 32.3 4.9 35 6.6M164 66.6c6.9-2.2 17.4-6.6 38-6.6 17.6 0 32.3 4.9 35 6.6" stroke="#000" stroke-width="3.7" stroke-linecap="round"/><path d="M120.6 94.8s-24 11.6-35.4 11.6c-11.4 0-30.9-11.6-30.9-11.6s21.8-11.6 33.2-11.6c11.3 0 33.1 11.6 33.1 11.6ZM233.6 94.8s-24 11.6-35.4 11.6c-11.4 0-30.9-11.6-30.9-11.6s21.8-11.6 33.2-11.6c11.3 0 33.1 11.6 33.1 11.6Z" fill="#fff"/><circle cx="89.1" cy="94.8" r="11.6" fill="#000"/><circle cx="198.8" cy="94.8" r="11.6" fill="#000"/></g><g transform="translate(127.7 288.7) scale(.71856)"></g><g transform="translate(193 279.4) scale(.71856)"><path d="M37 14v27c-3.7.7-11 4-11 10.5 0 8.2 7.3 10.5 11 11.7" stroke="#000" stroke-opacity=".5" stroke-width="4" stroke-linecap="round" stroke-linejoin="round"/></g><g transform="matrix(.52237 0 0 .52237 122.9 244.8)"><path d="M52 8H11v96h41V8Z" fill="#ecdcbf"/></g><g transform="matrix(-.52237 0 0 .52237 315.7 244.8)"><path d="M52 8H11v96h41V8Z" fill="#ecdcbf"/></g><g transform="matrix(.52237 0 0 .52237 108.7 145.6)"><path d="M399 203.5a185.5 185.5 0 0 0-371 0h371Z" fill="#ecdcbf"/></g></g></svg>