<svg xmlns="http://www.w3.org/2000/svg" viewBox="0 0 440 440" fill="none" shape-rendering="auto"><metadata xmlns:rdf="http://www.w3.org/1999/02/22-rdf-syntax-ns#" xmlns:xsi="http://www.w3.org/2001/XMLSchema-instance" xmlns:dc="http://purl.org/dc/elements/1.1/" xmlns:dcterms="http://purl.org/dc/terms/"><rdf:RDF><rdf:Description><dc:title>Face Generator</dc:title><dc:creator>The Visual Team</dc:creator><dc:source xsi:type="dcterms:URI">https://www.figma.com/community/file/986078800058673824</dc:source><dcterms:license xsi:type="dcterms:URI">https://creativecommons.org/licenses/by/4.0/</dcterms:license><dc:rights>Remix of „Face Generator” (https://www.figma.com/community/file/986078800058673824) by „The Visual Team”, licensed under „CC BY 4.0” (https://creativecommons.org/licenses/by/4.0/)</dc:rights></rdf:Description></rdf:RDF></metadata><mask id="viewboxMask"><rect width="440" height="440" rx="0" ry="0" x="0" y="0" fill="#fff" /></mask><g mask="url(#viewboxMask)"><g transform="matrix(.71048 0 0 .71048 24 2)"><path d="M431 317.5v-8a155.5 155.5 0 0 0-311 0v8a155.5 155.5 0 0 0 311 0Z" fill="#2c1b18"/></g><g transform="translate(81.7 150.7) scale(.71856)"><path d="M309 148H71v124h.3v1.3c0 29.8 53.3 77.4 119 77.4 65.8 0 119.1-47.6 119.1-77.4 0-1.6-.1-3.1-.4-4.7V148Z" fill="#da9969"/><path d="M71.2 253.6v.9-.9ZM71.2 254.5v18.8c0 29.8 53.4 77.4 119.1 77.4 65.8 0 119.1-47.6 119.1-77.4v-19.7.9c0 29.9-53.3 77.4-119 77.4-65.8 0-119.1-47.5-119.2-77.4Z" fill="#000" fill-opacity=".2"/><path d="M309 152.5c0 55.9-54.2 101.8-120 101.8-65.7 0-119-45.3-119-101.2C70 97.3 123.3 52 189 52c65.8 0 120 44.6 120 100.5Z" fill="#da9969"/></g><g transform="translate(199.5 333.4) scale(.71856)"><path fill-rule="evenodd" clip-rule="evenodd" d="M-1.7 8c1.5-.2 2.9.9 3 2.4.8 5.2 8.4 18.8 37.2 20.2a2.7 2.7 0 1 1-.2 5.4C7.9 34.5-3 19.7-4 11c-.2-1.4.9-2.8 2.3-3Z" fill="#000"/></g><g transform="translate(280.7 235.4) scale(.71856)"><rect x="21" y="21" width="88.1" height="88.1" rx="44.1" fill="#da9969"/><path d="M87 43 42.5 84.5" stroke="#000" stroke-opacity=".2" stroke-width="5" stroke-linecap="round" stroke-linejoin="round"/></g><g transform="matrix(-.71856 0 0 .71856 161.5 235.4)"><rect x="21" y="21" width="88.1" height="88.1" rx="44.1" fill="#da9969"/><path d="M87 43 42.5 84.5" stroke="#000" stroke-opacity=".2" stroke-width="5" stroke-linecap="round" stroke-linejoin="round"/></g><g transform="translate(114.8 215.5) scale(.71856)"><circle cx="199" cy="93.3" r="11.6" fill="#161616"/><circle cx="91" cy="93.3" r="11.6" fill="#161616"/><path d="M175 68.2c4.4-3 11-9.2 24.1-9.2 11.1 0 20.4 6.8 22.1 9.2M67 68.2c4.4-3 11-9.2 24.1-9.2 11.1 0 20.4 6.8 22.1 9.2" stroke="#000" stroke-width="9.2" stroke-linecap="round"/></g><g transform="translate(127.7 288.7) scale(.71856)"></g><g transform="translate(193 279.4) scale(.71856)"><path d="M22.6 34.4a17 17 0 1 0 32.6 0 16.9 16.9 0 0 1-32.6 0Z" fill="#000" fill-opacity=".2"/></g><g transform="matrix(.52237 0 0 .52237 122.9 244.8)"><path d="M52 8H11v96h41V8Z" fill="#2c1b18"/></g><g transform="matrix(-.52237 0 0 .52237 315.7 244.8)"><path d="M52 8H11v96h41V8Z" fill="#2c1b18"/></g><g transform="matrix(.52237 0 0 .52237 108.7 145.6)"><g fill="#2c1b18"><path d="M374 131c6.5 15.9 11.5 34.5 11.5 70-11 0-38.5 11-92.5-18-54.8-29.5-68.9-59.5-82-79-13 27-37 51.3-72.5 73.5C103 199.7 54.2 198.5 38 201c0-23.1 2-46 10.9-67.4A176 176 0 0 1 211 25a175 175 0 0 1 124 51.5c16.4 16.4 30.2 33.1 39 54.5Z"/><circle cx="149.5" cy="159.5" r="38.5"/><path d="M251 159.5a38.5 38.5 0 1 1-77 0c0-21.3 17.2-64 38.5-64s38.5 42.7 38.5 64Z"/><circle cx="274.5" cy="159.5" r="38.5"/></g></g></g></svg>