<svg xmlns="http://www.w3.org/2000/svg" viewBox="0 0 440 440" fill="none" shape-rendering="auto"><metadata xmlns:rdf="http://www.w3.org/1999/02/22-rdf-syntax-ns#" xmlns:xsi="http://www.w3.org/2001/XMLSchema-instance" xmlns:dc="http://purl.org/dc/elements/1.1/" xmlns:dcterms="http://purl.org/dc/terms/"><rdf:RDF><rdf:Description><dc:title>Face Generator</dc:title><dc:creator>The Visual Team</dc:creator><dc:source xsi:type="dcterms:URI">https://www.figma.com/community/file/986078800058673824</dc:source><dcterms:license xsi:type="dcterms:URI">https://creativecommons.org/licenses/by/4.0/</dcterms:license><dc:rights>Remix of „Face Generator” (https://www.figma.com/community/file/986078800058673824) by „The Visual Team”, licensed under „CC BY 4.0” (https://creativecommons.org/licenses/by/4.0/)</dc:rights></rdf:Description></rdf:RDF></metadata><mask id="viewboxMask"><rect width="440" height="440" rx="0" ry="0" x="0" y="0" fill="#fff" /></mask><g mask="url(#viewboxMask)"><g transform="matrix(.71048 0 0 .71048 24 2)"><path d="M131 137c-35 8.5-14 205 3.3 255.6 41.2 51.3 261.2 38.3 281 5.7 13.3-21.7 46.4-257.1 3.2-264.5-87-14.9-252.6-5.4-287.6 3.1Z" fill="#ecdcbf"/></g><g transform="translate(81.7 150.7) scale(.71856)"><path d="M69 111.3C69 95 82 82 98.3 82h185.4C300 82 313 95 313 111.3v241.4c0 16.2-13 29.3-29.3 29.3H98.3C82 382 69 369 69 352.7V111.3Z" fill="#da9969"/><path d="M69 330.8v22c0 16.1 13 29.2 29.3 29.2h185.4c16.2 0 29.3-13 29.3-29.3v-22c0 16.2-13 29.3-29.3 29.3H98.3C82 360 69 347 69 330.8Z" fill="#000" fill-opacity=".2"/></g><g transform="translate(199.5 333.4) scale(.71856)"><path d="M59 19.1a31 31 0 0 1-31.5 30.6A31 31 0 0 1-3.9 19.1c0-17 4.2-14.9 31.4-14.9 25.2 0 31.5-2 31.5 15Z" fill="#DE8383"/><path fill-rule="evenodd" clip-rule="evenodd" d="M58.8 17.7H-4c.2-14.1 4.1-14 23.5-14l8 .1h7.2c18.4-.2 23.7-.2 24 14Z" fill="#F9F9F9"/><path fill-rule="evenodd" clip-rule="evenodd" d="M53.8 35.7A31.7 31.7 0 0 1 27.7 49c-11 0-20.8-5.5-26.4-13.8a42.7 42.7 0 0 1 26-7.6 42 42 0 0 1 26.5 8Z" fill="#C06E6E"/></g><g transform="translate(280.7 235.4) scale(.71856)"><rect x="23" y="20" width="88" height="88.1" rx="44" fill="#da9969"/><path d="M47.6 57.5c2.5-6 18-32 34.5-17.2 12.7 11.3-15 33.2-16.5 22.2C64 51.5 99 52 89 78.5 84.8 90 62 91 47.6 77" stroke="#000" stroke-opacity=".2" stroke-width="4" stroke-linecap="round" stroke-linejoin="round"/></g><g transform="matrix(-.71856 0 0 .71856 161.5 235.4)"><rect x="23" y="20" width="88" height="88.1" rx="44" fill="#da9969"/><path d="M47.6 57.5c2.5-6 18-32 34.5-17.2 12.7 11.3-15 33.2-16.5 22.2C64 51.5 99 52 89 78.5 84.8 90 62 91 47.6 77" stroke="#000" stroke-opacity=".2" stroke-width="4" stroke-linecap="round" stroke-linejoin="round"/></g><g transform="translate(114.8 215.5) scale(.71856)"><path d="M58.7 45.3A60 60 0 0 1 91.4 36c18 0 34.8 7.8 32.6 9.3 0 18-3.3 0-31.6 0-30.5 0-33.7 18-33.7 0ZM165.7 45.3a60 60 0 0 1 32.7-9.3c18 0 34.8 7.8 32.6 9.3 0 18-3.3 0-31.6 0-30.5 0-33.7 18-33.7 0Z" fill="#000"/><path d="M87.3 69.1a4.1 4.1 0 0 1 7.8 0l3.3 10a4.1 4.1 0 0 0 4 3h10.5c4 0 5.7 5 2.4 7.4l-8.5 6.2c-1.5 1-2 3-1.5 4.6l3.2 10c1.3 3.9-3 7-6.3 4.7l-8.6-6.2c-1.4-1-3.4-1-4.8 0l-8.6 6.2a4.1 4.1 0 0 1-6.3-4.6l3.2-10c.6-1.8 0-3.6-1.5-4.7l-8.5-6.2a4.1 4.1 0 0 1 2.4-7.5h10.6c1.8 0 3.4-1.1 4-2.8l3.2-10ZM194.8 69.1a4.1 4.1 0 0 1 8 0l3.2 10a4.1 4.1 0 0 0 4 3h10.5c4 0 5.7 5 2.4 7.4l-8.5 6.2c-1.5 1-2 3-1.5 4.6l3.2 10c1.3 3.9-3.1 7-6.3 4.7l-8.6-6.2c-1.4-1-3.4-1-4.9 0l-8.5 6.2a4.1 4.1 0 0 1-6.4-4.6l3.3-10c.6-1.8 0-3.6-1.5-4.7l-8.5-6.2A4.1 4.1 0 0 1 177 82h10.5c1.8 0 3.4-1.1 4-2.8l3.2-10Z" fill="#FFEBB7"/></g><g transform="translate(127.7 288.7) scale(.71856)"><g fill="#F88888"><rect x="21" y="16" width="43.4" height="43.4" rx="21.7"/><rect x="194" y="16" width="43.4" height="43.4" rx="21.7"/></g></g><g transform="translate(193 279.4) scale(.71856)"><path d="M16.6 46.2A11.3 11.3 0 0 0 28.3 61 11.3 11.3 0 0 0 50 61h1a11.3 11.3 0 0 0 10.7-15A11.3 11.3 0 0 1 50 53.9a11.3 11.3 0 0 1-21.8 0h-1c-5 0-9.2-3.1-10.7-7.6Z" fill="#000" fill-opacity=".2"/></g><g transform="matrix(.52237 0 0 .52237 122.9 244.8)"><path d="M11 103V7.5h40L11 103Z" fill="#ecdcbf"/></g><g transform="matrix(-.52237 0 0 .52237 315.7 244.8)"><path d="M11 103V7.5h40L11 103Z" fill="#ecdcbf"/></g><g transform="matrix(.52237 0 0 .52237 108.7 145.6)"><g fill="#ecdcbf"><path d="M374 131c6.5 15.9 11.5 34.5 11.5 70-11 0-38.5 11-92.5-18-54.8-29.5-68.9-59.5-82-79-13 27-37 51.3-72.5 73.5C103 199.7 54.2 198.5 38 201c0-23.1 2-46 10.9-67.4A176 176 0 0 1 211 25a175 175 0 0 1 124 51.5c16.4 16.4 30.2 33.1 39 54.5Z"/><circle cx="149.5" cy="159.5" r="38.5"/><path d="M251 159.5a38.5 38.5 0 1 1-77 0c0-21.3 17.2-64 38.5-64s38.5 42.7 38.5 64Z"/><circle cx="274.5" cy="159.5" r="38.5"/></g></g></g></svg>