<svg xmlns="http://www.w3.org/2000/svg" viewBox="0 0 440 440" fill="none" shape-rendering="auto"><metadata xmlns:rdf="http://www.w3.org/1999/02/22-rdf-syntax-ns#" xmlns:xsi="http://www.w3.org/2001/XMLSchema-instance" xmlns:dc="http://purl.org/dc/elements/1.1/" xmlns:dcterms="http://purl.org/dc/terms/"><rdf:RDF><rdf:Description><dc:title>Face Generator</dc:title><dc:creator>The Visual Team</dc:creator><dc:source xsi:type="dcterms:URI">https://www.figma.com/community/file/986078800058673824</dc:source><dcterms:license xsi:type="dcterms:URI">https://creativecommons.org/licenses/by/4.0/</dcterms:license><dc:rights>Remix of „Face Generator” (https://www.figma.com/community/file/986078800058673824) by „The Visual Team”, licensed under „CC BY 4.0” (https://creativecommons.org/licenses/by/4.0/)</dc:rights></rdf:Description></rdf:RDF></metadata><mask id="viewboxMask"><rect width="440" height="440" rx="0" ry="0" x="0" y="0" fill="#fff" /></mask><g mask="url(#viewboxMask)"><g transform="matrix(.71048 0 0 .71048 24 2)"><g fill="#e8e1e1"><path d="M431 317.5v-8a155.5 155.5 0 0 0-311 0v8a155.5 155.5 0 0 0 311 0Z"/><path d="M114.2 293.4c-15.2 52.4 6.4 90.2 19 102.5 40.5 90.5 233.5 67.5 293 0 47.6-54-19.8-207.2-59.5-277L332 161.4c-16.5-14.2-46.5-53.4-55-53.4-8.7 0-29.6 33.2-47.8 53.4-10.5-17.7-33-51-39.5-42.5-8 10.5-56.5 109-75.5 174.5Z"/></g></g><g transform="translate(81.7 150.7) scale(.71856)"><path d="M310 123.1H72.8v167.3c0 31 53 80.6 118.6 80.6 65.5 0 118.6-49.5 118.6-80.6V123Z" fill="#f8b788"/><path d="M72.8 269.9v.8-.8ZM72.8 270.9v19.5c0 31 53 80.6 118.6 80.6 65.5 0 118.6-49.5 118.6-80.6v-20.5.9c0 31.1-53.1 80.6-118.6 80.6C126 351.4 72.9 302 72.8 271Z" fill="#000" fill-opacity=".2"/><ellipse cx="190.5" cy="129" rx="119.5" ry="105" fill="#f8b788"/></g><g transform="translate(199.5 333.4) scale(.71856)"><path fill-rule="evenodd" clip-rule="evenodd" d="M20 47.5c0-1.4 1.2-2.6 2.6-2.6 3.2-.1 8-.7 12-2 2-.8 3.5-1.6 4.5-2.5 1-.8 1.4-1.7 1.4-2.6 0-.8-.4-1.7-1.4-2.5-1-1-2.6-1.8-4.6-2.4-3.9-1.4-8.7-2-12-2a2.5 2.5 0 0 1 .1-5.1c3.2 0 8-.6 12-2 2-.6 3.5-1.4 4.5-2.3 1-1 1.4-1.8 1.4-2.8 0-1-.4-1.8-1.4-2.7-1-.9-2.6-1.7-4.5-2.4a42 42 0 0 0-12-1.9 2.5 2.5 0 0 1 0-5c3.6 0 9 .6 13.6 2.1 2.3.8 4.6 1.9 6.3 3.5 1.8 1.5 3 3.7 3 6.4 0 2.8-1.2 5-3 6.5a17.4 17.4 0 0 1-5.4 3.2c2 .7 3.9 1.7 5.4 3 1.7 1.6 3 3.7 3 6.4 0 2.8-1.3 4.9-3 6.4-1.8 1.6-4 2.7-6.3 3.4-4.6 1.6-10 2.2-13.5 2.3-1.4 0-2.6-1-2.6-2.4Z" fill="#000"/></g><g transform="translate(280.7 235.4) scale(.71856)"><rect x="22" y="19" width="88.1" height="88.1" rx="44.1" fill="#f8b788"/><path d="m79 38.5-39 29L83.5 87" stroke="#000" stroke-opacity=".2" stroke-width="5" stroke-linecap="round" stroke-linejoin="round"/></g><g transform="matrix(-.71856 0 0 .71856 161.5 235.4)"><rect x="22" y="19" width="88.1" height="88.1" rx="44.1" fill="#f8b788"/><path d="m79 38.5-39 29L83.5 87" stroke="#000" stroke-opacity=".2" stroke-width="5" stroke-linecap="round" stroke-linejoin="round"/></g><g transform="translate(114.8 215.5) scale(.71856)"><path d="M75 75a23.9 23.9 0 1 0 40.7 22.7L75.2 75ZM211.1 75a23.9 23.9 0 1 1-40.7 22.7L211 75Z" fill="#fff"/><path d="M74.5 52.5c7.5 5 40 26 49 31.5M213 53c-7.5 5-40 26-49 31.5" stroke="#000" stroke-width="3.7" stroke-linecap="round"/><path d="M75 53c7.5 5 40 26 49 31.5M213.5 53.5c-7.5 5-40 26-49 31.5" stroke="#000" stroke-width="3.7" stroke-linecap="round"/></g><g transform="translate(127.7 288.7) scale(.71856)"></g><g transform="translate(193 279.4) scale(.71856)"><g fill="#000" fill-opacity=".2"><rect x="25.9" y="51.5" width="11.7" height="8.9" rx="4.4" transform="rotate(-90 25.9 51.5)"/><rect x="43.7" y="51.5" width="11.7" height="8.9" rx="4.4" transform="rotate(-90 43.7 51.5)"/><path d="M61.2 41.4c.2-.8.2-1.7.2-2.5C61.4 29.6 54 22 44.5 22H34a16.9 16.9 0 0 0-16.7 19.4A16.9 16.9 0 0 1 33.9 27h10.6C53 27 60 33.2 61.2 41.4Z"/></g></g><g transform="matrix(.52237 0 0 .52237 122.9 244.8)"><path d="M32.5 87.5C8.1 87.5 2.5 32.5 5 4h27.5c-6.2 16-3.2 29.8-1.5 47 2 20 21.3 5.1 25.4-2.7.5 15.6-12 39.2-23.9 39.2Z" fill="#e8e1e1"/></g><g transform="matrix(-.52237 0 0 .52237 315.7 244.8)"><path d="M32.5 87.5C8.1 87.5 2.5 32.5 5 4h27.5c-6.2 16-3.2 29.8-1.5 47 2 20 21.3 5.1 25.4-2.7.5 15.6-12 39.2-23.9 39.2Z" fill="#e8e1e1"/></g><g transform="matrix(.52237 0 0 .52237 108.7 145.6)"><path d="M399 203.5a185.5 185.5 0 0 0-371 0h371Z" fill="#e8e1e1"/></g></g></svg>